<mxfile host="app.diagrams.net" agent="Mozilla/5.0 (X11; Linux x86_64) AppleWebKit/537.36 (KHTML, like Gecko) Chrome/129.0.0.0 Safari/537.36" version="24.7.16">
  <diagram name="Page-1" id="dX8RFwW6KyExKRI3k3SD">
    <mxGraphModel dx="2049" dy="1077" grid="1" gridSize="10" guides="1" tooltips="1" connect="1" arrows="1" fold="1" page="1" pageScale="1" pageWidth="850" pageHeight="1100" math="0" shadow="0">
      <root>
        <mxCell id="0" />
        <mxCell id="1" parent="0" />
        <mxCell id="bQAvpz45UFUDxQ4Eum4z-7" style="edgeStyle=orthogonalEdgeStyle;rounded=0;orthogonalLoop=1;jettySize=auto;html=1;exitX=1;exitY=0.5;exitDx=0;exitDy=0;entryX=0;entryY=0.5;entryDx=0;entryDy=0;" edge="1" parent="1" source="bQAvpz45UFUDxQ4Eum4z-1" target="bQAvpz45UFUDxQ4Eum4z-2">
          <mxGeometry relative="1" as="geometry" />
        </mxCell>
        <mxCell id="bQAvpz45UFUDxQ4Eum4z-1" value="S0:Idle" style="ellipse;whiteSpace=wrap;html=1;aspect=fixed;verticalAlign=top;" vertex="1" parent="1">
          <mxGeometry x="310" y="280" width="180" height="180" as="geometry" />
        </mxCell>
        <mxCell id="bQAvpz45UFUDxQ4Eum4z-9" style="edgeStyle=orthogonalEdgeStyle;rounded=0;orthogonalLoop=1;jettySize=auto;html=1;" edge="1" parent="1" source="bQAvpz45UFUDxQ4Eum4z-2" target="bQAvpz45UFUDxQ4Eum4z-3">
          <mxGeometry relative="1" as="geometry" />
        </mxCell>
        <mxCell id="bQAvpz45UFUDxQ4Eum4z-2" value="S1:StartBit" style="ellipse;whiteSpace=wrap;html=1;aspect=fixed;verticalAlign=top;" vertex="1" parent="1">
          <mxGeometry x="580" y="282.5" width="175" height="175" as="geometry" />
        </mxCell>
        <mxCell id="bQAvpz45UFUDxQ4Eum4z-40" style="edgeStyle=orthogonalEdgeStyle;rounded=0;orthogonalLoop=1;jettySize=auto;html=1;exitX=1;exitY=0.5;exitDx=0;exitDy=0;" edge="1" parent="1" source="bQAvpz45UFUDxQ4Eum4z-3" target="bQAvpz45UFUDxQ4Eum4z-4">
          <mxGeometry relative="1" as="geometry" />
        </mxCell>
        <mxCell id="bQAvpz45UFUDxQ4Eum4z-61" style="edgeStyle=orthogonalEdgeStyle;rounded=0;orthogonalLoop=1;jettySize=auto;html=1;" edge="1" parent="1" source="bQAvpz45UFUDxQ4Eum4z-3">
          <mxGeometry relative="1" as="geometry">
            <mxPoint x="930" y="480" as="targetPoint" />
          </mxGeometry>
        </mxCell>
        <mxCell id="bQAvpz45UFUDxQ4Eum4z-3" value="S2:Write" style="ellipse;whiteSpace=wrap;html=1;aspect=fixed;verticalAlign=top;" vertex="1" parent="1">
          <mxGeometry x="840" y="275" width="190" height="190" as="geometry" />
        </mxCell>
        <mxCell id="bQAvpz45UFUDxQ4Eum4z-42" style="edgeStyle=orthogonalEdgeStyle;rounded=0;orthogonalLoop=1;jettySize=auto;html=1;exitX=0;exitY=0.5;exitDx=0;exitDy=0;" edge="1" parent="1" source="bQAvpz45UFUDxQ4Eum4z-4">
          <mxGeometry relative="1" as="geometry">
            <mxPoint x="940" y="620" as="targetPoint" />
          </mxGeometry>
        </mxCell>
        <mxCell id="bQAvpz45UFUDxQ4Eum4z-46" style="edgeStyle=orthogonalEdgeStyle;rounded=0;orthogonalLoop=1;jettySize=auto;html=1;entryX=0.5;entryY=1;entryDx=0;entryDy=0;" edge="1" parent="1" source="bQAvpz45UFUDxQ4Eum4z-4" target="bQAvpz45UFUDxQ4Eum4z-5">
          <mxGeometry relative="1" as="geometry">
            <Array as="points">
              <mxPoint x="1215" y="890" />
              <mxPoint x="390" y="890" />
            </Array>
          </mxGeometry>
        </mxCell>
        <mxCell id="bQAvpz45UFUDxQ4Eum4z-53" style="edgeStyle=orthogonalEdgeStyle;rounded=0;orthogonalLoop=1;jettySize=auto;html=1;entryX=1;entryY=0.5;entryDx=0;entryDy=0;" edge="1" parent="1" source="bQAvpz45UFUDxQ4Eum4z-4" target="bQAvpz45UFUDxQ4Eum4z-52">
          <mxGeometry relative="1" as="geometry">
            <Array as="points">
              <mxPoint x="1310" y="575" />
              <mxPoint x="1310" y="170" />
            </Array>
          </mxGeometry>
        </mxCell>
        <mxCell id="bQAvpz45UFUDxQ4Eum4z-4" value="S4:Stop" style="ellipse;whiteSpace=wrap;html=1;aspect=fixed;verticalAlign=top;" vertex="1" parent="1">
          <mxGeometry x="1140" y="500" width="150" height="150" as="geometry" />
        </mxCell>
        <mxCell id="bQAvpz45UFUDxQ4Eum4z-57" style="edgeStyle=orthogonalEdgeStyle;rounded=0;orthogonalLoop=1;jettySize=auto;html=1;exitX=0;exitY=1;exitDx=0;exitDy=0;entryX=0;entryY=0.5;entryDx=0;entryDy=0;" edge="1" parent="1" source="bQAvpz45UFUDxQ4Eum4z-5" target="bQAvpz45UFUDxQ4Eum4z-5">
          <mxGeometry relative="1" as="geometry">
            <mxPoint x="310" y="760" as="targetPoint" />
            <Array as="points">
              <mxPoint x="340" y="830" />
              <mxPoint x="270" y="830" />
              <mxPoint x="270" y="755" />
            </Array>
          </mxGeometry>
        </mxCell>
        <mxCell id="bQAvpz45UFUDxQ4Eum4z-5" value="S5:Debounce" style="ellipse;whiteSpace=wrap;html=1;aspect=fixed;verticalAlign=top;" vertex="1" parent="1">
          <mxGeometry x="320" y="685" width="140" height="140" as="geometry" />
        </mxCell>
        <mxCell id="bQAvpz45UFUDxQ4Eum4z-8" value="KeyP&amp;nbsp;" style="text;html=1;align=center;verticalAlign=middle;whiteSpace=wrap;rounded=0;" vertex="1" parent="1">
          <mxGeometry x="490" y="330" width="90" height="30" as="geometry" />
        </mxCell>
        <mxCell id="bQAvpz45UFUDxQ4Eum4z-12" style="edgeStyle=orthogonalEdgeStyle;rounded=0;orthogonalLoop=1;jettySize=auto;html=1;entryX=0.436;entryY=0.986;entryDx=0;entryDy=0;entryPerimeter=0;" edge="1" parent="1" source="bQAvpz45UFUDxQ4Eum4z-5" target="bQAvpz45UFUDxQ4Eum4z-1">
          <mxGeometry relative="1" as="geometry" />
        </mxCell>
        <mxCell id="bQAvpz45UFUDxQ4Eum4z-13" value="&lt;div&gt;DELAY_FRAMES = 2812&lt;/div&gt;&lt;div&gt;txCounter = 0&lt;/div&gt;&lt;div&gt;dataOut = 0&lt;/div&gt;&lt;div&gt;txPinRegister = 1&lt;/div&gt;&lt;div&gt;txBitNumber = 0&lt;/div&gt;&lt;div&gt;txByteCounter = 0&lt;/div&gt;" style="text;html=1;align=center;verticalAlign=middle;whiteSpace=wrap;rounded=0;" vertex="1" parent="1">
          <mxGeometry x="325" y="340" width="150" height="80" as="geometry" />
        </mxCell>
        <mxCell id="bQAvpz45UFUDxQ4Eum4z-14" value="&lt;div&gt;&lt;br&gt;&lt;/div&gt;&lt;div&gt;txCounter = +&lt;/div&gt;&lt;div style=&quot;&quot;&gt;dataOut = codigo[txbytecounter]&lt;/div&gt;" style="text;html=1;align=center;verticalAlign=middle;whiteSpace=wrap;rounded=0;" vertex="1" parent="1">
          <mxGeometry x="592.5" y="330" width="150" height="80" as="geometry" />
        </mxCell>
        <mxCell id="bQAvpz45UFUDxQ4Eum4z-15" style="edgeStyle=orthogonalEdgeStyle;rounded=0;orthogonalLoop=1;jettySize=auto;html=1;exitX=0.5;exitY=0;exitDx=0;exitDy=0;entryX=0;entryY=0;entryDx=0;entryDy=0;" edge="1" parent="1" source="bQAvpz45UFUDxQ4Eum4z-1" target="bQAvpz45UFUDxQ4Eum4z-1">
          <mxGeometry relative="1" as="geometry">
            <Array as="points">
              <mxPoint x="400" y="240" />
              <mxPoint x="336" y="240" />
            </Array>
          </mxGeometry>
        </mxCell>
        <mxCell id="bQAvpz45UFUDxQ4Eum4z-16" value="~KeyP&amp;nbsp;" style="text;html=1;align=center;verticalAlign=middle;whiteSpace=wrap;rounded=0;" vertex="1" parent="1">
          <mxGeometry x="325" y="210" width="90" height="30" as="geometry" />
        </mxCell>
        <mxCell id="bQAvpz45UFUDxQ4Eum4z-18" value="txCounter&amp;lt;DELAY_FRAMES" style="text;html=1;align=center;verticalAlign=middle;whiteSpace=wrap;rounded=0;rotation=-90;" vertex="1" parent="1">
          <mxGeometry x="480" y="540" width="167.5" height="30" as="geometry" />
        </mxCell>
        <mxCell id="bQAvpz45UFUDxQ4Eum4z-19" value="txCounter&lt;div&gt;&lt;span style=&quot;background-color: initial;&quot;&gt;&amp;gt;DELAY_FRAMES&lt;/span&gt;&lt;/div&gt;" style="text;html=1;align=center;verticalAlign=middle;whiteSpace=wrap;rounded=0;" vertex="1" parent="1">
          <mxGeometry x="710" y="300" width="167.5" height="30" as="geometry" />
        </mxCell>
        <mxCell id="bQAvpz45UFUDxQ4Eum4z-20" value="&lt;div&gt;&lt;br&gt;&lt;/div&gt;&lt;div&gt;txPinRegister = dataout[txBitNumber]&lt;/div&gt;&lt;div&gt;txCounter =+&lt;/div&gt;" style="text;html=1;align=center;verticalAlign=middle;whiteSpace=wrap;rounded=0;" vertex="1" parent="1">
          <mxGeometry x="860" y="310" width="150" height="80" as="geometry" />
        </mxCell>
        <mxCell id="bQAvpz45UFUDxQ4Eum4z-22" value="txCounter&amp;lt;DELAY_FRAMES" style="text;html=1;align=center;verticalAlign=middle;whiteSpace=wrap;rounded=0;rotation=0;" vertex="1" parent="1">
          <mxGeometry x="960" y="530" width="180" height="40" as="geometry" />
        </mxCell>
        <mxCell id="bQAvpz45UFUDxQ4Eum4z-43" style="edgeStyle=orthogonalEdgeStyle;rounded=0;orthogonalLoop=1;jettySize=auto;html=1;exitX=1;exitY=1;exitDx=0;exitDy=0;entryX=0.2;entryY=0.933;entryDx=0;entryDy=0;entryPerimeter=0;" edge="1" parent="1" source="bQAvpz45UFUDxQ4Eum4z-23" target="bQAvpz45UFUDxQ4Eum4z-4">
          <mxGeometry relative="1" as="geometry">
            <mxPoint x="1110" y="690" as="targetPoint" />
            <Array as="points">
              <mxPoint x="653" y="790" />
              <mxPoint x="1110" y="790" />
              <mxPoint x="1110" y="640" />
            </Array>
          </mxGeometry>
        </mxCell>
        <mxCell id="bQAvpz45UFUDxQ4Eum4z-23" value="S5:Wait" style="ellipse;whiteSpace=wrap;html=1;aspect=fixed;verticalAlign=top;" vertex="1" parent="1">
          <mxGeometry x="567.5" y="650" width="100" height="100" as="geometry" />
        </mxCell>
        <mxCell id="bQAvpz45UFUDxQ4Eum4z-24" value="txCounter = +1" style="text;html=1;align=center;verticalAlign=middle;whiteSpace=wrap;rounded=0;" vertex="1" parent="1">
          <mxGeometry x="571.25" y="685" width="92.5" height="30" as="geometry" />
        </mxCell>
        <mxCell id="bQAvpz45UFUDxQ4Eum4z-26" value="txCounter&amp;lt;DELAY_FRAMES" style="text;html=1;align=center;verticalAlign=middle;whiteSpace=wrap;rounded=0;" vertex="1" parent="1">
          <mxGeometry x="533.75" y="810" width="167.5" height="30" as="geometry" />
        </mxCell>
        <mxCell id="bQAvpz45UFUDxQ4Eum4z-28" value="txCounter&amp;gt;DELAY_FRAMES&lt;div&gt;and&amp;nbsp;&lt;/div&gt;&lt;div&gt;txState=S1&lt;/div&gt;" style="text;html=1;align=center;verticalAlign=middle;whiteSpace=wrap;rounded=0;rotation=90;" vertex="1" parent="1">
          <mxGeometry x="630" y="510" width="167.5" height="30" as="geometry" />
        </mxCell>
        <mxCell id="bQAvpz45UFUDxQ4Eum4z-32" value="txCounter&amp;gt;DELAY_FRAMES&lt;div&gt;and&amp;nbsp;&lt;/div&gt;&lt;div&gt;txState=S2&lt;/div&gt;" style="text;html=1;align=center;verticalAlign=middle;whiteSpace=wrap;rounded=0;rotation=0;" vertex="1" parent="1">
          <mxGeometry x="647.5" y="650" width="167.5" height="30" as="geometry" />
        </mxCell>
        <mxCell id="bQAvpz45UFUDxQ4Eum4z-34" style="edgeStyle=orthogonalEdgeStyle;rounded=0;orthogonalLoop=1;jettySize=auto;html=1;entryX=0.533;entryY=1.002;entryDx=0;entryDy=0;entryPerimeter=0;" edge="1" parent="1" source="bQAvpz45UFUDxQ4Eum4z-23" target="bQAvpz45UFUDxQ4Eum4z-2">
          <mxGeometry relative="1" as="geometry" />
        </mxCell>
        <mxCell id="bQAvpz45UFUDxQ4Eum4z-35" style="edgeStyle=orthogonalEdgeStyle;rounded=0;orthogonalLoop=1;jettySize=auto;html=1;exitX=0;exitY=1;exitDx=0;exitDy=0;entryX=0.3;entryY=0.02;entryDx=0;entryDy=0;entryPerimeter=0;" edge="1" parent="1" source="bQAvpz45UFUDxQ4Eum4z-2" target="bQAvpz45UFUDxQ4Eum4z-23">
          <mxGeometry relative="1" as="geometry">
            <Array as="points">
              <mxPoint x="590" y="432" />
              <mxPoint x="590" y="550" />
              <mxPoint x="598" y="550" />
            </Array>
          </mxGeometry>
        </mxCell>
        <mxCell id="bQAvpz45UFUDxQ4Eum4z-36" style="edgeStyle=orthogonalEdgeStyle;rounded=0;orthogonalLoop=1;jettySize=auto;html=1;exitX=0;exitY=1;exitDx=0;exitDy=0;entryX=0.658;entryY=0.987;entryDx=0;entryDy=0;entryPerimeter=0;" edge="1" parent="1" source="bQAvpz45UFUDxQ4Eum4z-23" target="bQAvpz45UFUDxQ4Eum4z-23">
          <mxGeometry relative="1" as="geometry">
            <Array as="points">
              <mxPoint x="582" y="800" />
              <mxPoint x="633" y="800" />
            </Array>
          </mxGeometry>
        </mxCell>
        <mxCell id="bQAvpz45UFUDxQ4Eum4z-37" style="edgeStyle=orthogonalEdgeStyle;rounded=0;orthogonalLoop=1;jettySize=auto;html=1;exitX=1;exitY=0;exitDx=0;exitDy=0;entryX=0.404;entryY=0.983;entryDx=0;entryDy=0;entryPerimeter=0;" edge="1" parent="1" source="bQAvpz45UFUDxQ4Eum4z-24" target="bQAvpz45UFUDxQ4Eum4z-3">
          <mxGeometry relative="1" as="geometry">
            <Array as="points">
              <mxPoint x="810" y="685" />
              <mxPoint x="810" y="575" />
              <mxPoint x="917" y="575" />
            </Array>
          </mxGeometry>
        </mxCell>
        <mxCell id="bQAvpz45UFUDxQ4Eum4z-38" style="edgeStyle=orthogonalEdgeStyle;rounded=0;orthogonalLoop=1;jettySize=auto;html=1;entryX=0.963;entryY=0.789;entryDx=0;entryDy=0;entryPerimeter=0;" edge="1" parent="1" source="bQAvpz45UFUDxQ4Eum4z-3" target="bQAvpz45UFUDxQ4Eum4z-23">
          <mxGeometry relative="1" as="geometry">
            <Array as="points">
              <mxPoint x="935" y="730" />
              <mxPoint x="664" y="730" />
            </Array>
          </mxGeometry>
        </mxCell>
        <mxCell id="bQAvpz45UFUDxQ4Eum4z-39" value="txCounter&amp;lt;DELAY_FRAMES" style="text;html=1;align=center;verticalAlign=middle;whiteSpace=wrap;rounded=0;" vertex="1" parent="1">
          <mxGeometry x="730" y="740" width="167.5" height="30" as="geometry" />
        </mxCell>
        <mxCell id="bQAvpz45UFUDxQ4Eum4z-41" value="txBitNumber==8" style="text;html=1;align=center;verticalAlign=middle;whiteSpace=wrap;rounded=0;" vertex="1" parent="1">
          <mxGeometry x="1120" y="335" width="90" height="30" as="geometry" />
        </mxCell>
        <mxCell id="bQAvpz45UFUDxQ4Eum4z-44" value="txCounter&amp;gt;DELAY_FRAMES&lt;div&gt;and&amp;nbsp;&lt;/div&gt;&lt;div&gt;txState=S3&lt;/div&gt;" style="text;html=1;align=center;verticalAlign=middle;whiteSpace=wrap;rounded=0;rotation=0;" vertex="1" parent="1">
          <mxGeometry x="780" y="800" width="167.5" height="30" as="geometry" />
        </mxCell>
        <mxCell id="bQAvpz45UFUDxQ4Eum4z-47" value="txByteCounter==tamaño del mensaje" style="text;html=1;align=center;verticalAlign=middle;whiteSpace=wrap;rounded=0;" vertex="1" parent="1">
          <mxGeometry x="1220" y="740" width="150" height="30" as="geometry" />
        </mxCell>
        <mxCell id="bQAvpz45UFUDxQ4Eum4z-49" value="txByteCounter&amp;lt;tamaño del mensaje" style="text;html=1;align=center;verticalAlign=middle;whiteSpace=wrap;rounded=0;" vertex="1" parent="1">
          <mxGeometry x="1310" y="365" width="150" height="30" as="geometry" />
        </mxCell>
        <mxCell id="bQAvpz45UFUDxQ4Eum4z-50" value="txPinRegister=1" style="text;html=1;align=center;verticalAlign=middle;whiteSpace=wrap;rounded=0;" vertex="1" parent="1">
          <mxGeometry x="1185" y="560" width="60" height="30" as="geometry" />
        </mxCell>
        <mxCell id="bQAvpz45UFUDxQ4Eum4z-54" style="edgeStyle=orthogonalEdgeStyle;rounded=0;orthogonalLoop=1;jettySize=auto;html=1;" edge="1" parent="1" source="bQAvpz45UFUDxQ4Eum4z-52" target="bQAvpz45UFUDxQ4Eum4z-2">
          <mxGeometry relative="1" as="geometry" />
        </mxCell>
        <mxCell id="bQAvpz45UFUDxQ4Eum4z-52" value="S6&lt;div&gt;&lt;br&gt;&lt;/div&gt;&lt;div&gt;txCounter=0&lt;/div&gt;" style="ellipse;whiteSpace=wrap;html=1;aspect=fixed;verticalAlign=top;" vertex="1" parent="1">
          <mxGeometry x="890" y="130" width="80" height="80" as="geometry" />
        </mxCell>
        <mxCell id="bQAvpz45UFUDxQ4Eum4z-55" value="txCounter+1" style="text;html=1;align=center;verticalAlign=middle;whiteSpace=wrap;rounded=0;" vertex="1" parent="1">
          <mxGeometry x="355" y="740" width="60" height="30" as="geometry" />
        </mxCell>
        <mxCell id="bQAvpz45UFUDxQ4Eum4z-58" value="txCounter&amp;lt;262143" style="text;html=1;align=center;verticalAlign=middle;whiteSpace=wrap;rounded=0;" vertex="1" parent="1">
          <mxGeometry x="280" y="830" width="60" height="30" as="geometry" />
        </mxCell>
        <mxCell id="bQAvpz45UFUDxQ4Eum4z-59" value="txCounter&amp;gt;262143&lt;div&gt;and&lt;/div&gt;&lt;div&gt;KeyP=0&lt;/div&gt;" style="text;html=1;align=center;verticalAlign=middle;whiteSpace=wrap;rounded=0;" vertex="1" parent="1">
          <mxGeometry x="415" y="620" width="60" height="30" as="geometry" />
        </mxCell>
        <mxCell id="bQAvpz45UFUDxQ4Eum4z-60" value="Máquina de Estados UART" style="text;html=1;align=center;verticalAlign=middle;whiteSpace=wrap;rounded=0;fontSize=27;fontStyle=1" vertex="1" parent="1">
          <mxGeometry x="710" y="40" width="290" height="30" as="geometry" />
        </mxCell>
      </root>
    </mxGraphModel>
  </diagram>
</mxfile>
